HIERARCHY
ROOT joint_0
{
	OFFSET 0.000000 0.000000 0.000000
	CHANNELS 6 Xposition Yposition Zposition Zrotation Yrotation Xrotation 
	JOINT joint_1
	{
		OFFSET 8.185791 -2.713684 100.414917
		CHANNELS 3 Zrotation Yrotation Xrotation
		JOINT joint_2
		{
			OFFSET -4.376465 -1.111145 91.934082
			CHANNELS 3 Zrotation Yrotation Xrotation
			JOINT joint_3
			{
				OFFSET -6.985840 -1.054016 91.669922
				CHANNELS 3 Zrotation Yrotation Xrotation
				JOINT joint_4
				{
					OFFSET 0.150391 -4.451904 123.526001
					CHANNELS 3 Zrotation Yrotation Xrotation
					JOINT joint_5
					{
						OFFSET 19.754150 -8.123901 80.916992
						CHANNELS 3 Zrotation Yrotation Xrotation
						End Site
						{
							OFFSET 0.000000 0.000000 0.000000
						}
					}
				}
				JOINT joint_6
				{
					OFFSET -6.477539 -28.517334 68.237061
					CHANNELS 3 Zrotation Yrotation Xrotation
					JOINT joint_7
					{
						OFFSET -20.564453 -115.426208 -21.139038
						CHANNELS 3 Zrotation Yrotation Xrotation
						JOINT joint_8
						{
							OFFSET 18.981934 -19.826172 -267.898926
							CHANNELS 3 Zrotation Yrotation Xrotation
							JOINT joint_9
							{
								OFFSET 11.562744 -19.325867 -235.478027
								CHANNELS 3 Zrotation Yrotation Xrotation
								End Site
								{
									OFFSET 0.000000 0.000000 0.000000
								}
							}
						}
					}
				}
				JOINT joint_10
				{
					OFFSET 7.033936 23.504700 70.088989
					CHANNELS 3 Zrotation Yrotation Xrotation
					JOINT joint_11
					{
						OFFSET 36.629639 112.486816 -14.036987
						CHANNELS 3 Zrotation Yrotation Xrotation
						JOINT joint_12
						{
							OFFSET 41.355225 -7.048523 -266.019897
							CHANNELS 3 Zrotation Yrotation Xrotation
							JOINT joint_13
							{
								OFFSET 5.858887 29.785156 -234.603027
								CHANNELS 3 Zrotation Yrotation Xrotation
								End Site
								{
									OFFSET 0.000000 0.000000 0.000000
								}
							}
						}
					}
				}
			}
		}
	}
	JOINT joint_14
	{
		OFFSET -8.917725 -79.985535 -99.035034
		CHANNELS 3 Zrotation Yrotation Xrotation
		JOINT joint_15
		{
			OFFSET -32.739502 -31.478882 -502.570984
			CHANNELS 3 Zrotation Yrotation Xrotation
			JOINT joint_16
			{
				OFFSET 7.393066 -29.352966 -399.008011
				CHANNELS 3 Zrotation Yrotation Xrotation
				JOINT joint_17
				{
					OFFSET 178.013916 -26.060303 -71.875002
					CHANNELS 3 Zrotation Yrotation Xrotation
					End Site
					{
						OFFSET 0.000000 0.000000 0.000000
					}
				}
			}
		}
	}
	JOINT joint_18
	{
		OFFSET 1.900879 81.159851 -98.481018
		CHANNELS 3 Zrotation Yrotation Xrotation
		JOINT joint_19
		{
			OFFSET -15.120850 31.602051 -503.400024
			CHANNELS 3 Zrotation Yrotation Xrotation
			JOINT joint_20
			{
				OFFSET -16.653076 23.887695 -399.091988
				CHANNELS 3 Zrotation Yrotation Xrotation
				JOINT joint_21
				{
					OFFSET 179.618164 -1.217651 -72.592001
					CHANNELS 3 Zrotation Yrotation Xrotation
					End Site
					{
						OFFSET 0.000000 0.000000 0.000000
					}
				}
			}
		}
	}
}
MOTION
Frames: 13
Frame Time: 0.016667
-3170.381592 779.512268 1095.162964 3.528624 -1.302977 0.584876 1.553043 1.612004 -1.423743 1.610987 -0.417805 0.386900 1.569450 0.418985 -0.272269 0.025965 -0.123033 -0.157044 0.000000 0.000000 0.000000 -0.316685 -0.309610 0.303970 0.265110 -0.902066 3.047025 -0.093089 0.712783 -0.595432 0.000000 0.000000 0.000000 -0.559116 1.744113 -2.336980 0.285497 0.593525 1.521201 -0.351507 -1.810931 -3.070434 0.000000 0.000000 0.000000 -1.753472 3.470962 -2.420837 -2.014559 2.404778 2.530551 -1.659641 -3.307363 -1.151865 0.000000 0.000000 0.000000 -0.285235 1.253836 -0.232566 -0.173108 2.828701 -0.759046 -0.480141 -2.051258 -0.207713 0.000000 0.000000 0.000000 
-3170.277588 779.867188 1095.026978 3.444833 -1.265559 0.595644 1.460658 1.556901 -1.396666 1.517124 -0.412888 0.370691 1.478201 0.423603 -0.254159 0.038634 -0.164074 -0.225918 0.000000 0.000000 0.000000 -0.204431 -0.289643 0.328557 0.263934 -0.857691 3.050466 -0.090204 0.682700 -0.597146 0.000000 0.000000 0.000000 -0.266228 1.747658 -2.194696 0.293668 0.661820 1.354282 -0.314704 -1.566734 -3.025304 0.000000 0.000000 0.000000 -1.715802 3.429435 -2.484401 -1.986604 2.396914 2.584985 -1.635318 -3.277763 -1.137746 0.000000 0.000000 0.000000 -0.257832 1.219757 -0.250753 -0.141634 2.850928 -0.793989 -0.452527 -2.063283 -0.196645 0.000000 0.000000 0.000000 
-3169.973145 780.272034 1094.848022 3.353794 -1.211864 0.610393 1.332413 1.500547 -1.334592 1.385117 -0.403125 0.343277 1.350612 0.429750 -0.223054 0.055636 -0.235538 -0.325063 0.000000 0.000000 0.000000 -0.009306 -0.282945 0.339105 0.261292 -0.809967 3.033208 -0.086743 0.648002 -0.595570 0.000000 0.000000 0.000000 0.202539 1.737834 -1.995204 0.295779 0.745875 1.085550 -0.266639 -1.242811 -2.959974 0.000000 0.000000 0.000000 -1.673765 3.387433 -2.559949 -1.955169 2.378404 2.650748 -1.607877 -3.256822 -1.123628 0.000000 0.000000 0.000000 -0.226810 1.183548 -0.277239 -0.107018 2.868146 -0.827395 -0.421919 -2.082578 -0.184417 0.000000 0.000000 0.000000 
-3169.129150 780.528687 1094.665039 3.137054 -1.026339 0.657330 1.142208 1.404504 -1.309352 1.194330 -0.373943 0.323283 1.162495 0.415467 -0.202404 0.080454 -0.405141 -0.496982 0.000000 0.000000 0.000000 0.123915 -0.293557 0.324935 0.267194 -0.807282 3.073869 -0.080502 0.579515 -0.603296 0.000000 0.000000 0.000000 0.544155 1.762370 -1.715152 0.311573 0.908266 0.815972 -0.202727 -0.813923 -2.887099 0.000000 0.000000 0.000000 -1.588169 3.216172 -2.671053 -1.890803 2.350146 2.732002 -1.550202 -3.212981 -1.094004 0.000000 0.000000 0.000000 -0.160302 1.071979 -0.314268 -0.034408 2.837377 -0.891765 -0.353163 -2.108940 -0.156835 0.000000 0.000000 0.000000 
-3167.594482 780.454712 1094.458984 2.739907 -0.628260 0.769912 0.838836 1.247800 -1.378490 0.898258 -0.311259 0.339260 0.863545 0.365318 -0.209456 0.122184 -0.722900 -0.800644 0.000000 0.000000 0.000000 0.115696 -0.356566 0.277457 0.288629 -0.909619 3.214517 -0.072998 0.498881 -0.610659 0.000000 0.000000 0.000000 0.512133 1.871234 -1.358491 0.391202 1.183854 0.698835 -0.117750 -0.203713 -2.944459 0.000000 0.000000 0.000000 -1.442520 2.837779 -2.848621 -1.782346 2.281338 2.836590 -1.456090 -3.112334 -1.041423 0.000000 0.000000 0.000000 -0.044610 0.843087 -0.369528 0.089758 2.696052 -1.028851 -0.232068 -2.156252 -0.108268 0.000000 0.000000 0.000000 
-3165.502686 780.125610 1094.213013 2.210180 -0.061814 0.933892 0.433167 1.043985 -1.514069 0.505330 -0.215607 0.378307 0.464392 0.281776 -0.227737 0.174401 -1.171502 -1.201317 0.000000 0.000000 0.000000 0.013195 -0.469442 0.209893 0.320291 -1.094143 3.408675 -0.064191 0.416745 -0.590518 0.000000 0.000000 0.000000 0.217241 2.054944 -0.940551 0.533617 1.554373 0.701025 -0.015874 0.575091 -3.185140 0.000000 0.000000 0.000000 -1.252073 2.302004 -3.083697 -1.641375 2.171369 2.963987 -1.336509 -2.962766 -0.971421 0.000000 0.000000 0.000000 0.108305 0.526965 -0.442130 0.252084 2.457929 -1.226085 -0.071689 -2.222367 -0.043973 0.000000 0.000000 0.000000 
-3162.488525 779.772827 1094.145996 1.436582 0.669663 1.066844 0.069950 0.753901 -1.695147 0.157600 -0.121795 0.402558 0.111345 0.197307 -0.247754 0.193036 -1.787208 -1.527535 0.000000 0.000000 0.000000 -0.241884 -0.494786 0.158665 0.351691 -1.219698 3.622784 -0.038267 0.138736 -0.544778 0.000000 0.000000 0.000000 -0.106723 2.234467 -0.390270 0.584170 2.048549 0.419568 0.088086 1.287042 -3.152868 0.000000 0.000000 0.000000 -0.969869 1.558997 -3.306776 -1.427630 2.163644 3.096812 -1.137101 -2.804591 -0.867996 0.000000 0.000000 0.000000 0.331564 0.084064 -0.505626 0.495666 2.274623 -1.386036 0.170318 -2.232614 0.053607 0.000000 0.000000 0.000000 
-3158.216797 779.626648 1094.432983 0.267386 1.647488 1.095324 -0.190541 0.294347 -1.943758 -0.083392 -0.043594 0.393441 -0.132349 0.126482 -0.269305 0.145969 -2.651109 -1.673439 0.000000 0.000000 0.000000 -0.710384 -0.391121 0.210041 0.370785 -1.219775 3.753510 0.014475 -0.446533 -0.459347 0.000000 0.000000 0.000000 -0.306026 2.301013 0.377730 0.391765 2.694403 -0.587028 0.209989 1.949477 -2.207366 0.000000 0.000000 0.000000 -0.535695 0.477080 -3.467810 -1.090762 2.346793 3.227186 -0.803260 -2.602716 -0.704064 0.000000 0.000000 0.000000 0.676537 -0.538731 -0.510259 0.875596 2.125991 -1.503822 0.557998 -2.037654 0.211239 0.000000 0.000000 0.000000 
-3152.831543 779.600891 1094.991943 -1.260314 2.865241 1.031953 -0.403800 -0.320043 -2.285406 -0.269749 0.032840 0.387568 -0.322150 0.045920 -0.295008 0.046006 -3.747508 -1.671513 0.000000 0.000000 0.000000 -1.385788 -0.214557 0.367140 0.376412 -1.138378 3.745479 0.094053 -1.258842 -0.260216 0.000000 0.000000 0.000000 -0.464219 2.268150 1.296881 0.040431 3.447141 -2.142194 0.367530 2.753701 -0.560737 0.000000 0.000000 0.000000 0.032885 -0.920136 -3.591622 -0.644668 2.664815 3.364132 -0.356040 -2.320347 -0.482804 0.000000 0.000000 0.000000 1.132345 -1.316933 -0.466025 1.376562 1.948107 -1.616470 1.077151 -1.657553 0.422939 0.000000 0.000000 0.000000 
-3146.702881 779.338013 1095.687988 -2.825378 3.951454 0.940761 -0.412351 -0.873746 -2.602580 -0.249980 0.103888 0.426166 -0.310253 -0.061588 -0.332557 -0.062352 -4.699693 -1.565301 0.000000 0.000000 0.000000 -2.197299 0.250763 0.353394 0.378016 -0.832511 3.800628 0.214312 -2.352770 0.093924 0.000000 0.000000 0.000000 -0.574043 2.339261 2.153701 -0.272768 4.203824 -3.451508 0.453740 3.100643 0.521217 0.000000 0.000000 0.000000 0.612888 -2.202943 -3.702346 -0.187757 3.146585 3.487442 0.126618 -2.216713 -0.273702 0.000000 0.000000 0.000000 1.567970 -2.141691 -0.513749 1.883550 2.292443 -1.477366 1.566560 -1.548487 0.620428 0.000000 0.000000 0.000000 
-3140.047852 778.551697 1096.531006 -4.291715 4.649931 0.871089 -0.032342 -1.238932 -2.745481 0.149835 0.168379 0.496015 0.076675 -0.193173 -0.407862 -0.146739 -5.242983 -1.432891 0.000000 0.000000 0.000000 -3.179026 1.222507 0.016985 0.390211 -0.138350 4.035553 0.403691 -3.936169 0.635293 0.000000 0.000000 0.000000 -0.634982 2.779565 2.799323 -0.492276 4.973700 -3.863724 0.307425 2.126750 0.074510 0.000000 0.000000 0.000000 1.149196 -3.097323 -3.798325 0.238241 3.855700 3.562586 0.623248 -2.519135 -0.118893 0.000000 0.000000 0.000000 1.942896 -2.916274 -0.732589 2.364482 3.524387 -0.936520 1.963045 -1.984078 0.776029 0.000000 0.000000 0.000000 
-3132.728760 777.375854 1097.572021 -5.789181 5.104897 0.786757 0.682558 -1.494563 -2.721450 0.874802 0.224104 0.559202 0.786572 -0.334101 -0.525018 -0.222420 -5.529548 -1.281699 0.000000 0.000000 0.000000 -4.380982 2.601904 -0.437757 0.436200 0.900756 4.288394 0.667830 -5.991991 1.311956 0.000000 0.000000 0.000000 -0.674160 3.534554 3.263878 -0.671855 5.771515 -3.572963 -0.015641 0.052644 -1.432609 0.000000 0.000000 0.000000 1.691139 -3.771823 -3.850736 0.673372 4.780797 3.585842 1.163548 -3.114664 0.009821 0.000000 0.000000 0.000000 2.320598 -3.688914 -1.037157 2.875574 5.429548 -0.119910 2.339092 -2.716313 0.919875 0.000000 0.000000 0.000000 
-3124.838135 776.048950 1098.386963 -6.978852 5.443005 0.708881 1.407714 -1.607473 -2.694408 1.604977 0.257503 0.639791 1.502332 -0.433725 -0.621019 -0.291936 -5.698756 -1.128141 0.000000 0.000000 0.000000 -5.407147 4.009528 -0.912513 0.537507 1.981644 4.626107 0.902341 -7.818411 1.660823 0.000000 0.000000 0.000000 -0.714118 4.119528 3.809478 -0.811582 6.449729 -3.334016 -0.280525 -1.721166 -2.915299 0.000000 0.000000 0.000000 2.136334 -4.257938 -3.889799 1.016951 5.747768 3.612451 1.617991 -3.806889 0.089174 0.000000 0.000000 0.000000 2.526488 -4.696197 -1.372493 3.259362 8.098255 0.922081 2.525547 -3.664901 0.983809 0.000000 0.000000 0.000000 
